<?xml version="1.0" encoding="UTF-8"?>
<svg version="1.1" xmlns="http://www.w3.org/2000/svg" width="1080" height="1080">
<path d="M0 0 C8.76306804 -0.0013512 17.52613524 -0.00325701 26.28920275 -0.00665933 C27.15692916 -0.00699607 28.02465557 -0.00733282 28.91867672 -0.00767976 C30.66480821 -0.00836042 32.41093971 -0.00904153 34.1570712 -0.00972307 C49.80411731 -0.01576579 65.45115708 -0.0180338 81.09820396 -0.01354825 C82.62483205 -0.01311783 84.15146015 -0.01269133 85.67808825 -0.01226884 C86.79870066 -0.01195672 86.79870066 -0.01195672 87.94195171 -0.01163829 C93.10629016 -0.01043783 98.27062438 -0.01167274 103.43496233 -0.01402742 C110.1736927 -0.0170641 116.91240135 -0.01503116 123.65113086 -0.00925225 C126.08501636 -0.00795295 128.51890345 -0.00834891 130.95278829 -0.01055998 C134.23617406 -0.01326986 137.51949678 -0.00989334 140.80287844 -0.00487024 C141.75688009 -0.00710078 142.71088173 -0.00933133 143.69379252 -0.01162946 C144.5638398 -0.00902189 145.43388709 -0.00641432 146.33029944 -0.00372773 C147.07872754 -0.00356538 147.82715564 -0.00340303 148.59826338 -0.00323576 C150.6752997 0.12211341 150.6752997 0.12211341 154.6752997 1.12211341 C154.6752997 34.12211341 154.6752997 67.12211341 154.6752997 101.12211341 C143.7852997 101.12211341 132.8952997 101.12211341 121.6752997 101.12211341 C119.70829846 105.71178296 117.9285192 110.09752572 116.33545595 114.79789466 C115.91199892 116.03861731 115.48854189 117.27933997 115.05225283 118.55766028 C114.61379154 119.84987276 114.17564206 121.14219108 113.7377997 122.43461341 C108.94578257 136.57778174 108.94578257 136.57778174 106.73389345 141.92289466 C103.64699486 149.46666319 101.22641426 157.26030735 98.6752997 164.99711341 C98.14954207 166.5844471 97.62350211 168.1716873 97.0971747 169.75883216 C94.29217232 178.21565501 94.29217232 178.21565501 91.51514345 186.68168372 C91.17612002 187.71647864 90.83709658 188.75127356 90.4877997 189.81742591 C90.20549502 190.68641516 89.92319033 191.55540442 89.63233095 192.45072669 C88.90561914 194.47921666 88.08640131 196.47484328 87.22632509 198.45048255 C85.5957613 202.31039895 84.29313451 206.17777558 83.04639345 210.17289466 C82.56411196 211.6905174 82.08168596 213.20809423 81.59912783 214.72562903 C80.85086936 217.09285121 80.10461866 219.46067638 79.36109072 221.8293888 C78.63648327 224.1331048 77.90440298 226.43434077 77.17139345 228.73539466 C76.95051562 229.4468212 76.72963778 230.15824775 76.50206667 230.89123267 C74.9018452 235.89556791 74.9018452 235.89556791 72.6752997 238.12211341 C70.43018061 238.36820906 70.43018061 238.36820906 67.57541567 238.36262244 C66.49565462 238.36537177 65.41589358 238.3681211 64.3034125 238.37095374 C63.11370852 238.36376319 61.92400454 238.35657264 60.69824892 238.34916419 C58.8251253 238.34960227 58.8251253 238.34960227 56.91416079 238.3500492 C53.48454271 238.34889243 50.05516373 238.33884393 46.625588 238.32490128 C43.04346167 238.31242098 39.46133236 238.31122556 35.87918764 238.30885047 C29.09352406 238.30262773 22.30792472 238.28620623 15.52228945 238.26615149 C7.79809436 238.24381712 0.07389624 238.23280526 -7.65032309 238.22276062 C-23.5418194 238.20184066 -39.43325157 238.16664933 -55.3247003 238.12211341 C-56.09623034 234.62675662 -56.45852717 232.52224624 -55.2075128 229.13773841 C-54.93527891 228.38170325 -54.66304502 227.62566809 -54.38256162 226.84672278 C-54.07471739 226.03010169 -53.76687315 225.21348059 -53.4497003 224.37211341 C-53.13089903 223.49361731 -52.81209776 222.61512122 -52.48363584 221.71000403 C-51.44168913 218.84320864 -50.38371136 215.98264398 -49.3247003 213.12211341 C-47.92071276 209.29171999 -46.52671604 205.45777868 -45.1372003 201.62211341 C-44.77038145 200.61237464 -44.4035626 199.60263587 -44.02562803 198.56229895 C-39.96535519 187.2909679 -36.2184863 175.91562665 -32.48607725 164.53226966 C-28.45631659 152.28112081 -28.45631659 152.28112081 -26.3637628 147.23930091 C-23.46110743 140.21170189 -21.19217826 132.95047097 -18.84105772 125.72440833 C-18.00522359 123.1632353 -17.15628994 120.60662629 -16.30712217 118.04984778 C-15.77441435 116.41925176 -15.24248445 114.78840134 -14.71141905 113.15726966 C-14.45632063 112.39479422 -14.20122221 111.63231879 -13.93839353 110.84673804 C-12.48863435 106.52094829 -12.48863435 106.52094829 -13.3247003 102.12211341 C-24.35213302 101.37385628 -35.30411085 100.97073652 -46.35985655 100.98930091 C-47.81855117 100.98862415 -49.27724568 100.98765106 -50.73593992 100.98640174 C-53.75503986 100.98494644 -56.77410976 100.987011 -59.79320616 100.99174231 C-63.64259808 100.99748492 -67.49192094 100.99411844 -71.34131044 100.98816985 C-74.33802646 100.98454444 -77.33472625 100.98571112 -80.33144277 100.98829764 C-81.75107609 100.98895904 -83.17071093 100.98816639 -84.59034246 100.98581809 C-91.58540551 100.97676636 -98.40883728 101.01535551 -105.3247003 102.12211341 C-108.81409224 112.18828557 -111.3924974 122.36475071 -113.7622003 132.74711341 C-116.38960147 144.2548864 -119.29776173 155.64183355 -122.46630186 167.01176184 C-124.20981562 173.32927191 -125.89372187 179.66273544 -127.5747003 185.99711341 C-127.76218839 186.70295569 -127.94967649 187.40879798 -128.14284605 188.13602942 C-131.86817795 202.18537618 -135.39974539 216.28184575 -138.87450498 230.39506263 C-140.55718895 237.20910094 -142.25396708 244.00047289 -144.23485655 250.73539466 C-147.34334228 261.41186247 -149.8344975 272.25427977 -152.4497003 283.05961341 C-153.25711799 286.38894452 -154.06536324 289.71806941 -154.87520689 293.04681128 C-155.37536654 295.10327543 -155.87408527 297.16009075 -156.37111753 299.21731299 C-156.81535823 301.04619476 -157.26683156 302.873342 -157.72710508 304.69825476 C-158.10213993 306.21940392 -158.45058731 307.74761835 -158.75969785 309.28352088 C-159.17968076 311.17899817 -159.17968076 311.17899817 -160.3247003 314.12211341 C-163.89916355 316.00153078 -166.90001482 316.37029114 -170.89923948 316.36262244 C-172.56293073 316.36674643 -172.56293073 316.36674643 -174.26023191 316.37095374 C-175.46720228 316.36376319 -176.67417265 316.35657264 -177.91771787 316.34916419 C-179.83538969 316.34960227 -179.83538969 316.34960227 -181.79180235 316.3500492 C-185.28938512 316.35062219 -188.78683026 316.33887663 -192.28438109 316.32490128 C-195.94256366 316.31238496 -199.6007495 316.31122271 -203.25895017 316.30885047 C-210.18263564 316.30263835 -217.10625783 316.28623116 -224.02991545 316.26615149 C-231.91379026 316.24378414 -239.79766812 316.23279696 -247.68156677 316.22276062 C-263.89598164 316.20186469 -280.11033289 316.16669394 -296.3247003 316.12211341 C-297.20978833 310.7193943 -297.12521919 307.00827091 -295.73485655 301.68851966 C-295.55541502 300.98618201 -295.37597349 300.28384436 -295.19109434 299.56022376 C-294.60186823 297.26503879 -293.99464996 294.97503587 -293.3872003 292.68461341 C-292.97076621 291.07679878 -292.55566379 289.4686387 -292.14183897 287.86015052 C-291.29196564 284.56068215 -290.43613876 281.26283998 -289.57665342 277.96586341 C-288.40195396 273.44266263 -287.2686017 268.91016632 -286.1528253 264.37211341 C-285.89540807 263.32772353 -285.89540807 263.32772353 -285.63279051 262.26223487 C-284.83291911 259.01571488 -284.03544501 255.76863912 -283.24096006 252.52079505 C-281.4864409 245.45065125 -279.56800421 238.45501975 -277.53173155 231.46195716 C-273.70834532 218.2784768 -270.47627673 204.94978571 -267.1997003 191.62211341 C-265.99301563 186.71480122 -264.78137581 181.80874948 -263.5668878 176.90336341 C-263.30012235 175.81140662 -263.03335691 174.71944983 -262.75850767 173.59440345 C-261.13656315 167.04495398 -259.27697736 160.61093205 -257.25988096 154.17268103 C-255.9628974 149.94190915 -254.85097147 145.67689246 -253.78173155 141.38383216 C-253.46083807 140.10812102 -253.46083807 140.10812102 -253.13346189 138.80663794 C-252.68901762 137.03520292 -252.24633683 135.26332451 -251.80541319 133.49100989 C-251.13368667 130.79551397 -250.45312387 128.10234888 -249.77196592 125.40922278 C-249.33718898 123.67172565 -248.90292589 121.93409983 -248.46923155 120.19633216 C-248.26820326 119.40345298 -248.06717497 118.61057379 -247.86005491 117.79366797 C-246.65475341 112.91206886 -245.76005422 108.13656406 -245.3247003 103.12211341 C-247.1019172 101.3448965 -249.4771723 102.00223242 -251.84333128 101.99769324 C-252.63454878 102.00128852 -253.42576627 102.00488379 -254.24096006 102.00858802 C-255.07015959 102.00844199 -255.89935911 102.00829596 -256.75368589 102.00814551 C-259.50785228 102.0088449 -262.2619519 102.01663847 -265.01610655 102.02445716 C-266.92039796 102.02632125 -268.82468985 102.02774519 -270.72898191 102.02874488 C-275.75137993 102.03257078 -280.77374921 102.04240168 -285.79613584 102.05344886 C-290.9169815 102.06366143 -296.03783178 102.06824216 -301.15868467 102.07328528 C-311.21403586 102.08402388 -321.26936569 102.10110116 -331.3247003 102.12211341 C-336.8493713 123.04059607 -336.8493713 123.04059607 -341.6997003 144.12211341 C-341.97660703 145.40336097 -342.25351377 146.68460852 -342.53881162 148.00468177 C-344.27467698 156.05753353 -345.95175982 164.12256343 -347.62548155 172.18851966 C-347.82331236 173.14011969 -348.02114317 174.09171973 -348.22496885 175.07215613 C-349.19931733 179.7600564 -350.16912565 184.44878481 -351.12889951 189.13969153 C-352.64244091 196.48738604 -354.17156373 203.78628148 -356.1997003 211.01273841 C-360.03003855 224.9298538 -362.57166083 239.20651719 -365.46215147 253.34452552 C-366.28155896 257.34843355 -367.10682401 261.35109671 -367.93798155 265.35258216 C-368.07528873 266.01384667 -368.21259592 266.67511119 -368.35406393 267.35641402 C-370.57205475 277.98899802 -373.12208747 288.51867007 -375.81536192 299.04105872 C-378.48377728 309.54528506 -380.69052623 320.11549087 -382.7835626 330.74729651 C-383.8285858 336.04880806 -384.89773599 341.34542877 -385.96923155 346.64164466 C-386.17535063 347.66072913 -386.38146971 348.6798136 -386.59383482 349.72977942 C-388.6761549 359.95874971 -391.09637772 370.08535359 -393.61718076 380.21439856 C-395.03009589 386.02109944 -396.33289605 391.85273327 -397.6372003 397.68461341 C-397.89211241 398.81044837 -398.14702451 399.93628333 -398.40966123 401.0962345 C-399.4249558 405.65951956 -400.3810493 410.11542316 -400.80516905 414.77445716 C-400.97661436 415.87918372 -401.14805967 416.98391028 -401.3247003 418.12211341 C-404.85502059 420.47566027 -406.29331083 420.371382 -410.47374815 420.36935157 C-411.76090223 420.37354605 -413.04805631 420.37774054 -414.37421507 420.38206214 C-415.80367444 420.37657854 -417.23313305 420.37089556 -418.66259092 420.36503333 C-420.16553671 420.36610608 -421.66848209 420.36804465 -423.17142576 420.37078589 C-427.25607076 420.37563854 -431.34060673 420.36797329 -435.42523855 420.35783285 C-439.69596448 420.34905867 -443.96668692 420.35080967 -448.23742002 420.35119361 C-455.40992397 420.35025665 -462.58238564 420.34156848 -469.75487608 420.32792395 C-478.05220965 420.31219811 -486.34949692 420.30692584 -494.64684433 420.30765951 C-502.62224846 420.30826952 -510.59763749 420.30316651 -518.57303709 420.29486769 C-521.9701025 420.2913335 -525.36716256 420.28950425 -528.76422971 420.28897399 C-532.76311594 420.28797063 -536.76196318 420.28187455 -540.76083654 420.27180785 C-542.2302288 420.26888304 -543.69962554 420.26765744 -545.16902059 420.26823539 C-547.17123542 420.26872495 -549.17344855 420.26246048 -551.17565244 420.25582618 C-552.29726522 420.25415033 -553.418878 420.25247449 -554.57447904 420.25074786 C-557.3247003 420.12211341 -557.3247003 420.12211341 -560.3247003 419.12211341 C-559.7208364 412.94911188 -558.78823384 406.99184464 -557.46923155 400.93461341 C-557.28724211 400.08333365 -557.10525266 399.2320539 -556.91774839 398.35497779 C-556.32904357 395.60962862 -555.73342344 392.86583873 -555.1372003 390.12211341 C-554.72445907 388.20700637 -554.31178047 386.29188583 -553.89916319 384.37675208 C-551.60066076 373.75188092 -549.17885105 363.1695964 -546.56420225 352.61771888 C-544.23093387 343.04627925 -542.28182365 333.40086277 -540.3247003 323.74711341 C-537.98538376 312.2081614 -535.62923182 300.67834215 -533.0747003 289.18461341 C-532.85298155 288.18188391 -532.6312628 287.17915442 -532.4028253 286.14603919 C-531.19737717 280.77085272 -529.89221005 275.4327085 -528.51610655 270.09867591 C-525.74614272 259.21964571 -523.56906484 248.2071254 -521.29534239 237.21632117 C-514.2156902 203.02945267 -514.2156902 203.02945267 -510.6997003 189.05961341 C-506.24610489 171.35456492 -502.72548474 153.43644789 -499.06194395 135.55492896 C-498.1130135 130.92720152 -497.15455176 126.30195814 -496.16991514 121.68168372 C-495.98708479 120.82273505 -495.80425443 119.96378638 -495.61588377 119.07880896 C-495.27592916 117.48638433 -494.93406305 115.89436589 -494.58979124 114.30286902 C-494.43745527 113.58918158 -494.2851193 112.87549414 -494.12816709 112.14017981 C-493.99645612 111.52961737 -493.86474516 110.91905493 -493.72904295 110.2899906 C-493.16218652 107.25079819 -492.76191916 104.18264545 -492.3247003 101.12211341 C-551.7247003 101.12211341 -611.1247003 101.12211341 -672.3247003 101.12211341 C-671.20434446 95.52033423 -671.20434446 95.52033423 -668.0122003 92.62211341 C-665.16766188 89.93336107 -662.70329114 87.24401389 -660.3247003 84.12211341 C-659.22139826 82.70477326 -658.11712885 81.28818592 -657.0122003 79.87211341 C-655.14271869 77.46791985 -653.27757984 75.06076973 -651.42235655 72.64555091 C-650.81262998 71.85406653 -650.20290342 71.06258216 -649.5747003 70.24711341 C-648.74712217 69.16816809 -648.74712217 69.16816809 -647.9028253 68.06742591 C-646.46092176 66.29002997 -644.94078807 64.73820118 -643.3247003 63.12211341 C-641.93380949 61.46868498 -640.5607197 59.80021619 -639.1997003 58.12211341 C-638.40048155 57.13984778 -637.6012628 56.15758216 -636.7778253 55.14555091 C-635.96829405 54.14781653 -635.1587628 53.15008216 -634.3247003 52.12211341 C-629.48957451 46.17250827 -624.61062082 40.26876971 -619.6372003 34.43461341 C-615.68137387 29.78925172 -611.92270085 25.04878736 -608.3247003 20.12211341 C-606.30463577 17.48990812 -604.32776714 15.12509954 -601.9497003 12.80961341 C-599.18002406 9.97399249 -596.89029018 6.99039644 -594.5590753 3.79398841 C-593.3247003 2.12211341 -593.3247003 2.12211341 -592.3247003 1.12211341 C-590.39404407 1.01932139 -588.45957104 0.98810324 -586.52618593 0.98344821 C-584.6212369 0.9752366 -584.6212369 0.9752366 -582.67780405 0.9668591 C-581.24801485 0.96578223 -579.81822558 0.96479763 -578.38843626 0.96389502 C-576.88090403 0.95933092 -575.37337306 0.95433082 -573.86584359 0.94893038 C-569.68988328 0.9352668 -565.51393118 0.92790161 -561.33795427 0.92150322 C-556.81854026 0.91350749 -552.29914315 0.89979663 -547.77974123 0.88680953 C-538.8307683 0.86202793 -529.88179104 0.84269259 -520.93280147 0.82507093 C-510.2971352 0.80391673 -499.66148445 0.77730289 -489.02583084 0.75062981 C-467.18188421 0.69611844 -445.3379254 0.64890056 -423.49395674 0.60421073 C-407.94238264 0.57237849 -392.39081263 0.53905808 -376.83924454 0.50441602 C-265.66831388 0.25691102 -154.49727455 0.05462896 0 0 Z " fill="#FAFAFA" transform="translate(799.3247002959251,204.87788659334183)"/>
<path d="M0 0 C1.55436768 -0.00422974 1.55436768 -0.00422974 3.14013672 -0.00854492 C4.28151596 -0.00652069 5.4228952 -0.00449646 6.59886169 -0.00241089 C7.79723663 -0.00416321 8.99561157 -0.00591553 10.2303009 -0.00772095 C13.521489 -0.01137509 16.81261448 -0.01050873 20.1037991 -0.00734186 C23.54266016 -0.00481523 26.98151848 -0.00715659 30.42037964 -0.00872803 C36.19488507 -0.01054859 41.96937773 -0.00814612 47.74388123 -0.00338745 C54.42857561 0.00205753 61.11323951 0.00029035 67.79793316 -0.00521386 C73.52957914 -0.00974514 79.26121593 -0.01039554 84.99286312 -0.00777519 C88.41956929 -0.00621283 91.84626112 -0.00601758 95.27296638 -0.00931168 C99.08994364 -0.01272452 102.90688647 -0.00800042 106.72386169 -0.00241089 C108.4389669 -0.00544724 108.4389669 -0.00544724 110.1887207 -0.00854492 C111.222146 -0.0057251 112.25557129 -0.00290527 113.3203125 0 C114.22383737 0.00037703 115.12736223 0.00075405 116.05826664 0.0011425 C118.09666443 0.12698364 118.09666443 0.12698364 119.09666443 1.12698364 C118.96048245 9.18399487 117.0512513 17.22905396 115.51463318 25.10354614 C115.25633544 26.44092755 114.9983099 27.77836156 114.74053955 29.11584473 C114.2012751 31.90838098 113.65881153 34.70027087 113.11399841 37.49172974 C112.42565717 41.01987036 111.74519202 44.54947347 111.06719494 48.07961464 C110.53584222 50.84139079 110.00021927 53.60232656 109.46341896 56.36304855 C109.09123657 58.28087256 108.7224464 60.19935392 108.35379028 62.11785889 C107.11724635 68.42701846 105.73745281 74.6691575 104.13108826 80.89407349 C102.07126198 88.91628113 100.503366 96.99950278 99.01806641 105.14529419 C98.55102706 107.70586316 98.07744699 110.26515415 97.60240173 112.82424927 C96.59495449 118.2574798 95.5951902 123.69210741 94.59666443 129.12698364 C93.4371586 135.43805826 92.27427702 141.74847429 91.10314941 148.05740356 C90.64276905 150.54666517 90.18833843 153.03696081 89.73423767 155.52737427 C88.39629741 162.78630706 86.95077855 169.97162311 85.09886169 177.11819458 C83.02934725 185.10458737 81.47130627 193.15423492 79.98750114 201.26755524 C79.51632531 203.84378897 79.03887805 206.4187984 78.56005859 208.99362183 C77.71708358 213.53203463 76.87933598 218.07139275 76.04344177 222.6111145 C74.70367153 229.88736432 73.35963846 237.16280722 72.00827217 244.43691254 C71.54261766 246.95088244 71.08160751 249.46567235 70.62094116 251.9805603 C69.21359481 259.60426183 67.68983971 267.13995007 65.73550415 274.64697266 C64.91115785 277.84713039 64.25030991 281.06631082 63.62400818 284.31057739 C63.50008698 284.94864822 63.37616577 285.58671906 63.24848938 286.24412537 C62.84050148 288.35030521 62.43734482 290.45737872 62.03416443 292.56448364 C61.73904123 294.09154162 61.44370518 295.61855847 61.1481781 297.14553833 C59.24784609 306.99317012 57.39733572 316.8499046 55.55760193 326.70901489 C55.11501885 329.0749899 54.67239176 331.44095667 54.22972107 333.80691528 C53.36366158 338.43654517 52.50445808 343.06737747 51.64915466 347.69900513 C48.25128838 365.9645182 48.25128838 365.9645182 45.94822693 374.74417114 C43.64940775 383.53326769 42.35848812 392.43251805 41.1181488 401.42385864 C40.92672302 402.65362427 40.73529724 403.88338989 40.53807068 405.15042114 C40.30132629 406.8043689 40.30132629 406.8043689 40.05979919 408.49172974 C39.09666443 411.12698364 39.09666443 411.12698364 36.86352253 412.27902794 C34.0161176 413.15166873 31.83220835 413.36009944 28.86380005 413.32952881 C27.31369987 413.32103157 27.31369987 413.32103157 25.73228455 413.31236267 C24.60947083 413.29582138 23.4866571 413.27928009 22.32981873 413.26223755 C21.13915298 413.25277603 19.94848724 413.24331451 18.72174072 413.23356628 C15.46580987 413.20570187 12.21013322 413.168795 8.95434546 413.12784243 C5.54846869 413.08714821 2.14249316 413.05804836 -1.26348877 413.02770996 C-7.70912939 412.96853871 -14.15461393 412.89896523 -20.60010737 412.82563913 C-27.93978989 412.74264809 -35.27957108 412.67127663 -42.61938345 412.60087323 C-57.71417945 412.45582419 -72.8087898 412.29620892 -87.90333557 412.12698364 C-87.35092133 407.60579626 -86.78596042 403.17705917 -85.80958557 398.72463989 C-85.58843079 397.69411499 -85.367276 396.66359009 -85.13941956 395.60183716 C-84.89651184 394.4757605 -84.65360413 393.34968384 -84.40333557 392.18948364 C-81.0120855 376.19368111 -78.11050078 360.11214215 -75.23927307 344.01589966 C-73.54413721 334.5822654 -71.75000414 325.20715762 -69.55177307 315.87698364 C-67.31208328 306.33078108 -65.43650003 296.72790628 -63.63380432 287.09182739 C-63.49181736 286.33295479 -63.3498304 285.57408218 -63.2035408 284.79221344 C-62.4669653 280.84978077 -61.73349273 276.90677751 -61.00144958 272.96350098 C-59.60690231 265.45448079 -58.19776691 257.94822346 -56.78191566 250.44319344 C-56.3423697 248.10874165 -55.90600222 245.77371282 -55.46990967 243.43861389 C-53.18138103 231.25246163 -50.59862762 219.13737972 -47.88294983 207.03970337 C-43.65209817 188.17538659 -40.31616314 169.10796341 -36.80179024 150.09970284 C-36.25320142 147.1349396 -35.70205814 144.17065364 -35.15073395 141.20639801 C-34.77123067 139.15887102 -34.39602913 137.11058893 -34.02107239 135.06222534 C-32.75099779 128.22519944 -31.30702251 121.48648532 -29.56918335 114.75318909 C-28.69672188 111.31206764 -27.99658714 107.86708007 -27.32521057 104.38088989 C-27.12702477 103.35829826 -27.12702477 103.35829826 -26.92483521 102.31504822 C-26.49783968 100.10712299 -26.07555728 97.89832623 -25.65333557 95.68948364 C-25.35044098 94.1192863 -25.04729436 92.54913755 -24.74391174 90.97903442 C-23.15059146 82.71621582 -21.58416599 74.44844987 -20.03224182 66.17776489 C-19.879216 65.36362625 -19.72619019 64.54948761 -19.56852722 63.7106781 C-18.83759875 59.82101637 -18.10968725 55.93085178 -17.38868713 52.03933716 C-15.18699143 40.22982816 -12.7696166 28.4592579 -9.81861877 16.8117981 C-8.72865415 12.42373831 -8.09282263 8.04127077 -7.46583557 3.56838989 C-7.18739807 2.3598938 -7.18739807 2.3598938 -6.90333557 1.12698364 C-4.42185257 -0.11375786 -2.7764966 0.0011581 0 0 Z " fill="#BDF96F" transform="translate(743.9033355712891,461.8730163574219)"/>
<path d="M0 0 C1.12458115 -0.00274933 2.24916229 -0.00549866 3.40782166 -0.0083313 C4.63708878 -0.00114075 5.8663559 0.0060498 7.13287354 0.01345825 C8.43068253 0.0131662 9.72849152 0.01287415 11.06562805 0.01257324 C14.62111836 0.01199947 18.17647369 0.02375764 21.73193264 0.03772116 C25.44884494 0.05022451 29.16576034 0.0513987 32.88269043 0.05377197 C39.91973976 0.05998791 46.95672694 0.07640025 53.9937489 0.09647095 C62.00577238 0.11882643 70.01779882 0.1298225 78.02984571 0.13986182 C94.50986272 0.16076638 110.98981723 0.19594456 127.4697876 0.24050903 C128.30774209 4.27481691 128.52562535 7.27309042 127.54522705 11.27346802 C127.31781326 12.22563705 127.09039948 13.17780609 126.85609436 14.15882874 C126.60099594 15.17449417 126.34589752 16.19015961 126.08306885 17.23660278 C125.82478806 18.30234024 125.56650726 19.3680777 125.30039978 20.46611023 C124.47181229 23.87281573 123.62711972 27.27530001 122.7822876 30.67800903 C122.23243661 32.93231708 121.6835982 35.18687237 121.13580322 37.44168091 C118.37922287 48.7454909 115.50793567 60.00912759 112.4697876 71.24050903 C109.08045094 84.1326997 106.04963376 97.07608014 103.2822876 110.11550903 C100.57739479 122.8472941 97.39129124 135.41662824 94.0322876 147.99050903 C90.45196854 161.39347349 87.10106027 174.80782369 84.1572876 188.36550903 C83.99580231 189.10903625 83.83431702 189.85256348 83.66793823 190.61862183 C83.50884979 191.35155457 83.34976135 192.0844873 83.18585205 192.83963013 C82.87304548 194.28056988 82.5601405 195.72148827 82.24713135 197.16238403 C82.09683975 197.85462067 81.94654816 198.5468573 81.79170227 199.2600708 C80.37687064 205.7390259 78.83234076 212.18288597 77.2197876 218.61550903 C76.99766602 219.50512329 76.77554443 220.39473755 76.54669189 221.31130981 C75.3213982 226.13302091 73.98653027 230.91198783 72.58795166 235.68630981 C70.52475582 242.89339839 68.79659229 250.14575436 67.1572876 257.45925903 C66.85915442 258.7734483 66.56055965 260.08753292 66.26153564 261.40151978 C65.32664783 265.51354723 64.39772558 269.62690847 63.4697876 273.74050903 C62.39179244 278.51932136 61.31113836 283.29750252 60.22409058 288.07426453 C59.79785413 289.95314081 59.37628561 291.83307418 58.95489502 293.71304321 C57.31093823 300.94570923 55.43904997 308.07229502 53.34506226 315.18807983 C51.97085246 319.98049336 50.91218845 324.83169678 49.87213135 329.70535278 C48.68148775 335.02880888 48.68148775 335.02880888 46.4697876 337.24050903 C44.17337227 337.489398 44.17337227 337.489398 41.2449646 337.48774719 C40.13732758 337.49194168 39.02969055 337.49613617 37.88848877 337.50045776 C36.05725464 337.4920285 36.05725464 337.4920285 34.18902588 337.48342896 C32.26701859 337.48627647 32.26701859 337.48627647 30.30618286 337.48918152 C26.78543664 337.49403823 23.26481674 337.48636318 19.74408579 337.47622848 C16.06239365 337.46745735 12.38070558 337.46920526 8.69900513 337.46958923 C2.5133655 337.4686519 -3.67222515 337.45996011 -9.85784912 337.44631958 C-17.00941257 337.43060721 -24.16092232 337.42532097 -31.31250179 337.42605513 C-38.1885273 337.42666569 -45.06453532 337.4215568 -51.94055557 337.41326332 C-54.86789207 337.40973281 -57.79522236 337.4079004 -60.72256088 337.40736961 C-64.81195355 337.4061778 -68.90128276 337.39646245 -72.99066162 337.38577271 C-74.81582306 337.38645248 -74.81582306 337.38645248 -76.67785645 337.387146 C-77.79113312 337.38288101 -78.90440979 337.37861603 -80.05142212 337.3742218 C-81.0185507 337.37254596 -81.98567928 337.37087011 -82.98211479 337.36914349 C-85.3144397 337.25140179 -87.29848536 336.90244739 -89.5302124 336.24050903 C-88.9207166 328.72888504 -87.36862831 321.56509588 -85.62884521 314.23855591 C-85.15651814 312.24601738 -84.694367 310.25131319 -84.2333374 308.25613403 C-83.01825989 303.08426565 -81.8124229 297.9835921 -80.07611084 292.9602356 C-78.36172025 287.91371214 -77.16781585 282.79751997 -76.0067749 277.59988403 C-75.77872162 276.59701355 -75.55066833 275.59414307 -75.31570435 274.56088257 C-74.59128462 271.3717047 -73.87297078 268.18119202 -73.1552124 264.99050903 C-67.54842397 240.19775143 -67.54842397 240.19775143 -64.8661499 228.75613403 C-64.67453278 227.92547424 -64.48291565 227.09481445 -64.28549194 226.23898315 C-63.38180405 222.41570694 -62.38027286 218.69807841 -61.08514404 214.98806763 C-59.04117483 209.02624778 -57.71638098 202.90239346 -56.31536865 196.76394653 C-55.86129887 194.80182006 -55.40722633 192.83969422 -54.95300198 190.87760353 C-54.32188252 188.14671482 -53.69465195 185.41493924 -53.06750488 182.68313599 C-51.82425619 177.26903487 -50.57579878 171.85614518 -49.3234539 166.44414139 C-48.89365056 164.58231093 -48.46724517 162.71969705 -48.04096985 160.85705566 C-46.31746926 153.39021194 -44.42709261 145.98712397 -42.43043518 138.59005737 C-41.39663058 134.74347788 -40.42776725 130.8882253 -39.48724365 127.01785278 C-39.31756577 126.32086273 -39.14788788 125.62387268 -38.97306824 124.90576172 C-38.42788474 122.6635938 -37.88525267 120.42081785 -37.3427124 118.17800903 C-36.95376964 116.5766774 -36.56477097 114.97535935 -36.17572021 113.37405396 C-34.12719134 104.92766967 -32.10732271 96.47495438 -30.12005615 88.01394653 C-29.92293533 87.17596024 -29.72581451 86.33797394 -29.52272034 85.47459412 C-28.5810813 81.46991313 -27.64330165 77.46440882 -26.71307373 73.45706177 C-24.97636858 66.02324956 -23.11890033 58.6501022 -21.0302124 51.30691528 C-18.40890342 42.07046905 -16.31009747 32.7469223 -14.2802124 23.36550903 C-13.75446031 20.9595167 -13.22731267 18.55383338 -12.69995117 16.14819336 C-12.37702569 14.67266104 -12.05529746 13.196866 -11.73498535 11.72076416 C-11.33775833 9.89305854 -10.93432217 8.0667052 -10.5302124 6.24050903 C-10.41322998 5.46433228 -10.29624756 4.68815552 -10.17572021 3.88845825 C-9.5302124 2.24050903 -9.5302124 2.24050903 -7.83550644 1.15254402 C-5.07223077 0.05931945 -2.97110396 -0.00560586 0 0 Z " fill="#BCF96F" transform="translate(504.53021240234375,537.7594909667969)"/>
<path d="M0 0 C1.51403846 5.7031878 0.30342227 10.0896886 -1.1875 15.625 C-1.39697266 16.45128906 -1.60644531 17.27757812 -1.82226562 18.12890625 C-3.00560239 22.68668406 -4.36895045 27.14244409 -5.90600586 31.59326172 C-7.92415689 37.61369729 -9.53174122 43.67477582 -11.0234375 49.84375 C-11.42642563 51.47842224 -11.42642563 51.47842224 -11.83755493 53.14611816 C-12.9699794 57.74016255 -14.09117776 62.33692424 -15.21289062 66.93359375 C-20.66169216 89.21370494 -20.66169216 89.21370494 -23.9453125 99.81640625 C-27.9895668 112.8822065 -31.18511946 126.17212708 -34.5 139.4375 C-41.75092908 168.41379223 -41.75092908 168.41379223 -45.87652588 182.54388428 C-48.88485741 192.91530775 -51.37864462 203.41594488 -53.90625 213.9128418 C-54.54082037 216.54106794 -55.18392062 219.16709024 -55.828125 221.79296875 C-56.11251434 222.99109444 -56.11251434 222.99109444 -56.40264893 224.21342468 C-57.77342468 229.77342468 -57.77342468 229.77342468 -60 232 C-62.65117073 232.23047829 -62.65117073 232.23047829 -66.08694458 232.20254517 C-67.38547363 232.19688034 -68.68400269 232.19121552 -70.0218811 232.18537903 C-71.46917938 232.16885622 -72.91647547 232.15214136 -74.36376953 232.13525391 C-75.88128093 232.12483239 -77.39879863 232.11529631 -78.9163208 232.10658264 C-83.04427653 232.08035689 -87.1720345 232.04169199 -91.29986811 232.00085878 C-95.61065664 231.96030966 -99.92152135 231.93110984 -104.23239136 231.90072632 C-112.39932511 231.84142986 -120.56613817 231.77186874 -128.73295772 231.69865549 C-138.02901975 231.61581603 -147.32515826 231.54436516 -156.62132096 231.47388959 C-175.7476605 231.32863388 -194.87385642 231.16901546 -214 231 C-213.68610055 229.24774017 -213.37088954 227.49571527 -213.05513 225.74378967 C-212.87973851 224.76810563 -212.70434702 223.79242159 -212.52364063 222.78717136 C-211.87689136 219.34473216 -211.08196463 215.95591003 -210.23046875 212.55859375 C-209.98879974 211.58994637 -209.98879974 211.58994637 -209.74224854 210.60173035 C-209.22792049 208.54597813 -208.70808614 206.49167556 -208.1875 204.4375 C-207.8249313 202.99723808 -207.46238264 201.55697111 -207.09985352 200.11669922 C-204.7459285 190.79606723 -202.26155227 181.52033348 -199.640625 172.27148438 C-195.89116119 158.97689167 -192.3859055 145.62462983 -189.05859375 132.21875 C-188.79789597 131.16938263 -188.53719818 130.12001526 -188.26860046 129.03884888 C-186.95515974 123.74634229 -185.64856462 118.4522606 -184.35131836 113.15576172 C-182.27919898 104.74298501 -180.20238169 96.37627502 -177.5390625 88.12890625 C-173.97656798 77.09099014 -171.31052057 65.8102782 -168.5 54.5625 C-161.92280368 28.28227811 -161.92280368 28.28227811 -158.15820312 15.89428711 C-157.18972387 12.69690794 -156.30320589 9.48062763 -155.4276123 6.25660706 C-155.15962578 5.27080941 -154.89163925 4.28501177 -154.61553192 3.26934147 C-154.41240639 2.52045878 -154.20928085 1.7715761 -154 1 C-134.36385775 0.86949558 -114.72771475 0.73910436 -95.09157085 0.60884857 C-85.97453972 0.54836836 -76.85750883 0.48785086 -67.74047852 0.42724609 C-59.79573341 0.3744341 -51.85098784 0.32169153 -43.90624171 0.26903296 C-39.69808564 0.24113843 -35.48992981 0.21320872 -31.28177452 0.18519592 C-27.32316392 0.15884539 -23.36455271 0.13258748 -19.40594101 0.10640144 C-17.95106165 0.096761 -16.49618252 0.08708636 -15.04130363 0.07737541 C-13.05863886 0.06414668 -11.0759732 0.05105162 -9.0933075 0.03796387 C-7.98254695 0.03058952 -6.8717864 0.02321518 -5.72736645 0.01561737 C-3.8182685 0.00468555 -1.90912925 0 0 0 Z " fill="#BDF96F" transform="translate(391,643)"/>
<path d="M0 0 C1.51349891 5.7011554 0.30603775 10.09214518 -1.1875 15.625 C-1.41872559 16.51509766 -1.64995117 17.40519531 -1.88818359 18.32226562 C-3.39924576 24.04204672 -5.124146 29.65204147 -7.0859375 35.234375 C-8.68669696 40.07769849 -9.83822824 45.03606613 -11 50 C-11.33 50 -11.66 50 -12 50 C-10.22315404 34.00838634 -5.09480342 18.56025301 -1 3 C-51.49 3.33 -101.98 3.66 -154 4 C-154 3.01 -154 2.02 -154 1 C-134.36385775 0.86949558 -114.72771475 0.73910436 -95.09157085 0.60884857 C-85.97453972 0.54836836 -76.85750883 0.48785086 -67.74047852 0.42724609 C-59.79573341 0.3744341 -51.85098784 0.32169153 -43.90624171 0.26903296 C-39.69808564 0.24113843 -35.48992981 0.21320872 -31.28177452 0.18519592 C-27.32316392 0.15884539 -23.36455271 0.13258748 -19.40594101 0.10640144 C-17.95106165 0.096761 -16.49618252 0.08708636 -15.04130363 0.07737541 C-13.05863886 0.06414668 -11.0759732 0.05105162 -9.0933075 0.03796387 C-7.98254695 0.03058952 -6.8717864 0.02321518 -5.72736645 0.01561737 C-3.8182685 0.00468555 -1.90912925 0 0 0 Z " fill="#2F3F1C" transform="translate(391,643)"/>
<path d="M0 0 C1.55436768 -0.00422974 1.55436768 -0.00422974 3.14013672 -0.00854492 C4.28151596 -0.00652069 5.4228952 -0.00449646 6.59886169 -0.00241089 C7.79723663 -0.00416321 8.99561157 -0.00591553 10.2303009 -0.00772095 C13.521489 -0.01137509 16.81261448 -0.01050873 20.1037991 -0.00734186 C23.54266016 -0.00481523 26.98151848 -0.00715659 30.42037964 -0.00872803 C36.19488507 -0.01054859 41.96937773 -0.00814612 47.74388123 -0.00338745 C54.42857561 0.00205753 61.11323951 0.00029035 67.79793316 -0.00521386 C73.52957914 -0.00974514 79.26121593 -0.01039554 84.99286312 -0.00777519 C88.41956929 -0.00621283 91.84626112 -0.00601758 95.27296638 -0.00931168 C99.08994364 -0.01272452 102.90688647 -0.00800042 106.72386169 -0.00241089 C108.4389669 -0.00544724 108.4389669 -0.00544724 110.1887207 -0.00854492 C111.222146 -0.0057251 112.25557129 -0.00290527 113.3203125 0 C114.22383737 0.00037703 115.12736223 0.00075405 116.05826664 0.0011425 C118.09666443 0.12698364 118.09666443 0.12698364 119.09666443 1.12698364 C118.96890717 9.2998083 117.00363443 17.46916536 115.44432068 25.45510864 C115.18122173 26.8164444 114.91840454 28.17783463 114.65585327 29.53927612 C114.10817751 32.37377043 113.55733635 35.2076252 113.00413513 38.04104614 C112.29782428 41.65988118 111.59922427 45.28015411 110.90293217 48.9009285 C110.36284248 51.70514424 109.81884458 54.50859086 109.27366447 57.31182098 C108.88939796 59.29108001 108.50826591 61.27094677 108.12719727 63.25082397 C107.890327 64.45938049 107.65345673 65.66793701 107.40940857 66.91311646 C107.20368729 67.97105408 106.997966 69.0289917 106.78601074 70.11898804 C106.07867785 73.20546892 105.14612845 76.14119493 104.09666443 79.12698364 C103.76666443 79.12698364 103.43666443 79.12698364 103.09666443 79.12698364 C103.78016198 69.306732 105.86274247 59.8109581 107.84666443 50.18948364 C111.12646014 34.20047956 114.12369406 18.18102363 117.09666443 2.12698364 C76.50666443 2.12698364 35.91666443 2.12698364 -5.90333557 2.12698364 C-6.23333557 5.09698364 -6.56333557 8.06698364 -6.90333557 11.12698364 C-7.23333557 11.12698364 -7.56333557 11.12698364 -7.90333557 11.12698364 C-8.02833557 4.50198364 -8.02833557 4.50198364 -6.90333557 1.12698364 C-4.42185257 -0.11375786 -2.7764966 0.0011581 0 0 Z " fill="#0A0E06" transform="translate(743.9033355712891,461.8730163574219)"/>
<path d="M0 0 C0.33 0 0.66 0 1 0 C0.3960586 6.4161219 -0.66267937 12.52582247 -2.14453125 18.79296875 C-2.35559006 19.70146072 -2.56664886 20.6099527 -2.78410339 21.54597473 C-3.2296331 23.45839721 -3.67769533 25.37023131 -4.12817383 27.28149414 C-4.80620835 30.16078238 -5.47502443 33.04209411 -6.14257812 35.92382812 C-8.26850826 45.04323961 -10.51113102 54.08223675 -13.15795898 63.06567383 C-14.52168331 67.81795062 -15.56624171 72.63168637 -16.59765625 77.46484375 C-17.78829985 82.78829985 -17.78829985 82.78829985 -20 85 C-22.29641533 85.24888897 -22.29641533 85.24888897 -25.224823 85.24723816 C-26.33246002 85.25143265 -27.44009705 85.25562714 -28.58129883 85.25994873 C-29.80212158 85.25432922 -31.02294434 85.24870972 -32.28076172 85.24291992 C-34.20276901 85.24576744 -34.20276901 85.24576744 -36.16360474 85.24867249 C-39.68435096 85.25352919 -43.20497086 85.24585414 -46.72570181 85.23571944 C-50.40739395 85.22694832 -54.08908201 85.22869623 -57.77078247 85.2290802 C-63.9564221 85.22814287 -70.14201275 85.21945108 -76.32763672 85.20581055 C-83.47920017 85.19009818 -90.63070992 85.18481194 -97.78228939 85.1855461 C-104.6583149 85.18615666 -111.53432291 85.18104777 -118.41034317 85.17275429 C-121.33767966 85.16922377 -124.26500996 85.16739136 -127.19234848 85.16686058 C-131.28174115 85.16566876 -135.37107036 85.15595341 -139.46044922 85.14526367 C-141.28561066 85.14594345 -141.28561066 85.14594345 -143.14764404 85.14663696 C-144.26092072 85.14237198 -145.37419739 85.13810699 -146.52120972 85.13371277 C-147.4883383 85.13203692 -148.45546688 85.13036108 -149.45190239 85.12863445 C-151.7842273 85.01089276 -153.76827295 84.66193836 -156 84 C-155.39050419 76.488376 -153.8384159 69.32458685 -152.09863281 61.99804688 C-151.62630574 60.00550834 -151.1641546 58.01080416 -150.703125 56.015625 C-149.10411593 49.20958638 -147.35365081 42.58444643 -145 36 C-144.67 36 -144.34 36 -144 36 C-144.43250648 44.99613488 -146.74534423 53.29452355 -149 62 C-150.65 68.93 -152.3 75.86 -154 83 C-109.78 83 -65.56 83 -20 83 C-18.68 76.73 -17.36 70.46 -16 64 C-14.908461 59.63135191 -13.7967314 55.28340949 -12.625 50.9375 C-9.89174619 40.61450672 -7.37745743 30.25962659 -5.04150391 19.83959961 C-3.53901657 13.17197597 -1.85503209 6.57840351 0 0 Z " fill="#0E1308" transform="translate(571,790)"/>
<path d="M0 0 C30.36 0 60.72 0 92 0 C90.68 5.28 89.36 10.56 88 16 C87.30409248 18.9570212 86.61348938 21.91361195 85.9375 24.875 C84.52172193 30.99338486 82.93861243 37.02261167 81 43 C80.67 43 80.34 43 80 43 C80.58955068 35.87380613 82.09188292 29.3184222 84 22.4375 C85.78602196 15.97159501 87.49906167 9.70787736 88 3 C86.2227831 1.2227831 83.847528 1.88011901 81.48136902 1.87557983 C80.69015152 1.87917511 79.89893402 1.88277039 79.08374023 1.88647461 C78.25454071 1.88632858 77.42534119 1.88618256 76.5710144 1.8860321 C73.81684802 1.88673149 71.06274839 1.89452507 68.30859375 1.90234375 C66.40430234 1.90420784 64.50001045 1.90563178 62.59571838 1.90663147 C57.57332037 1.91045737 52.55095108 1.92028827 47.52856445 1.93133545 C42.4077188 1.94154802 37.28686852 1.94612876 32.16601562 1.95117188 C22.1106624 1.96191048 12.05533808 1.97950785 2 2 C-0.31 10.91 -2.62 19.82 -5 29 C-5.33 29 -5.66 29 -6 29 C-5.60451671 19.66659444 -4.2388091 8.47761819 0 0 Z " fill="#161616" transform="translate(466,305)"/>
<path d="M0 0 C3.3 0 6.6 0 10 0 C7.66334526 14.55616589 4.50563699 28.93328969 1.3293457 43.32519531 C0.57727937 46.73414327 -0.16553694 50.14503853 -0.90620518 53.5564785 C-1.62050368 56.83840501 -2.34398804 60.11828878 -3.06640625 63.3984375 C-3.33103165 64.6201767 -3.59565704 65.84191589 -3.86830139 67.10067749 C-4.11873703 68.2268045 -4.36917267 69.35293152 -4.62719727 70.51318359 C-4.84465103 71.50337494 -5.0621048 72.49356628 -5.28614807 73.51376343 C-6 76 -6 76 -8 79 C-7.3849776 72.68366063 -6.40559668 66.58448384 -5.07421875 60.3828125 C-4.88535599 59.48617889 -4.69649323 58.58954529 -4.50190735 57.66574097 C-3.90111443 54.81796186 -3.29444714 51.97147308 -2.6875 49.125 C-2.29192245 47.25529192 -1.89673734 45.38550076 -1.50195312 43.515625 C0.04033544 36.21794358 1.58828347 28.9215003 3.14990234 21.62792969 C3.51012732 19.93685666 3.87031773 18.24577628 4.23046875 16.5546875 C4.39476883 15.79253937 4.55906891 15.03039124 4.72834778 14.24514771 C5.6635447 9.84303013 6.41399715 5.46243924 7 1 C4.69 1 2.38 1 0 1 C0 0.67 0 0.34 0 0 Z " fill="#252525" transform="translate(300,305)"/>
<path d="M0 0 C0.495 0.99 0.495 0.99 1 2 C0.34 2 -0.32 2 -1 2 C-1.40617554 2.87700562 -1.40617554 2.87700562 -1.82055664 3.77172852 C-2.99291872 5.98662164 -4.27149861 7.72880576 -5.87109375 9.65234375 C-6.44013428 10.34005859 -7.0091748 11.02777344 -7.59545898 11.73632812 C-8.50726929 12.8259082 -8.50726929 12.8259082 -9.4375 13.9375 C-10.06277588 14.69095703 -10.68805176 15.44441406 -11.33227539 16.22070312 C-15.61715542 21.3745601 -19.94745267 26.48926551 -24.29321289 31.59179688 C-27.46887678 35.33388557 -30.51279463 39.15842696 -33.49609375 43.0546875 C-35.59227726 45.76611449 -37.78641285 48.38394246 -40 51 C-40.33 50.34 -40.66 49.68 -41 49 C-38.85314797 46.37606974 -36.70617551 43.75223936 -34.55859375 41.12890625 C-32.96445166 39.18077701 -31.37367631 37.23007475 -29.78515625 35.27734375 C-25.68263308 30.24006846 -21.52678021 25.25613374 -17.3125 20.3125 C-13.35664903 15.66710949 -9.59859155 10.92622727 -6 6 C-2.27586207 1.13793103 -2.27586207 1.13793103 0 0 Z " fill="#191919" transform="translate(197,219)"/>
<path d="M0 0 C0.66 0.33 1.32 0.66 2 1 C-0.97 4.63 -3.94 8.26 -7 12 C4.55 12.33 16.1 12.66 28 13 C28 13.33 28 13.66 28 14 C15.79 14 3.58 14 -9 14 C-7.87869674 8.39348371 -7.87869674 8.39348371 -4.5 5.3125 C-1.87556365 2.9399548 -1.87556365 2.9399548 0 0 Z " fill="#121212" transform="translate(136,292)"/>
<path d="M0 0 C0.33 0 0.66 0 1 0 C0.45540968 11.32747863 -2.86593625 22.16429079 -6 33 C-6.33 33 -6.66 33 -7 33 C-6.24233714 21.66118347 -3.86652301 10.6789683 0 0 Z " fill="#1D2711" transform="translate(426,826)"/>
<path d="M0 0 C7.26 0 14.52 0 22 0 C19 9 19 9 17 12 C17.08378906 11.36191406 17.16757812 10.72382813 17.25390625 10.06640625 C17.35574219 9.24011719 17.45757813 8.41382813 17.5625 7.5625 C17.66691406 6.73878906 17.77132812 5.91507812 17.87890625 5.06640625 C17.91886719 4.38449219 17.95882812 3.70257813 18 3 C15.88074396 0.88074396 11.3803907 1.58168983 8.4375 1.4375 C7.63119141 1.39431641 6.82488281 1.35113281 5.99414062 1.30664062 C3.99631195 1.20024738 1.9981793 1.09959112 0 1 C0 0.67 0 0.34 0 0 Z " fill="#282828" transform="translate(769,305)"/>
<path d="M0 0 C0.33 0 0.66 0 1 0 C1.1967188 4.91797007 0.5550535 8.37926961 -1 13 C-1.57791925 15.62449569 -2.12391532 18.23663577 -2.625 20.875 C-2.7590625 21.56335938 -2.893125 22.25171875 -3.03125 22.9609375 C-3.35772223 24.63993755 -3.67936553 26.31987536 -4 28 C-4.33 28 -4.66 28 -5 28 C-4.63131401 18.26668991 -2.54888362 9.34195486 0 0 Z " fill="#12180A" transform="translate(714,580)"/>
<path d="M0 0 C0.33 0 0.66 0 1 0 C0.57910004 5.60461531 0.08386889 10.72086547 -2 16 C-2.66 16 -3.32 16 -4 16 C-3.39891424 10.34979382 -1.92471317 5.33835539 0 0 Z " fill="#13190B" transform="translate(426,826)"/>
<path d="M0 0 C3.3 0 6.6 0 10 0 C9.67 1.98 9.34 3.96 9 6 C8.34 6 7.68 6 7 6 C7 4.35 7 2.7 7 1 C4.69 1 2.38 1 0 1 C0 0.67 0 0.34 0 0 Z " fill="#0C0C0C" transform="translate(300,305)"/>
<path d="M0 0 C1.32 0 2.64 0 4 0 C3.44894091 3.9492568 2.61064629 7.34920174 1 11 C-0.11988052 7.64035843 0.28019087 5.41909335 1 2 C0.67 1.34 0.34 0.68 0 0 Z " fill="#0C0C0C" transform="translate(786,306)"/>
</svg>
